<svg width="28" height="28" viewBox="0 0 28 28" fill="none" xmlns="http://www.w3.org/2000/svg">
<path d="M11.2867 13.9684L11.2861 13.9687C11.2855 13.9693 11.2855 13.9699 11.2855 13.9699C11.2434 14.0127 11.2117 14.0644 11.1858 14.1194C11.1787 14.1333 11.1738 14.1459 11.1683 14.1604C11.1627 14.1745 11.155 14.1874 11.1507 14.2025L9.9175 18.7644C9.86889 18.9453 9.92058 19.1382 10.0526 19.2708C10.1523 19.3702 10.2858 19.4241 10.4221 19.4241C10.4677 19.4241 10.5141 19.4182 10.5584 19.4056L14.9449 18.2201C14.9738 18.225 15.0015 18.237 15.0307 18.237C15.1649 18.237 15.2987 18.1859 15.4009 18.0837L22.5043 10.9797C22.8827 10.601 23.092 10.0973 23.092 9.56159C23.092 9.0259 22.8827 8.52221 22.5043 8.14344L21.2261 6.86529C20.4689 6.10744 19.1461 6.10867 18.3901 6.86529L11.2867 13.9684ZM19.1304 7.60467C19.4917 7.24252 20.1243 7.24282 20.4867 7.60498L21.7649 8.88282C21.9464 9.06406 22.0461 9.30498 22.0461 9.56159C22.0461 9.81821 21.9464 10.0588 21.7649 10.2404L21.3803 10.625L18.7452 7.99021L19.1304 7.60467ZM18.0055 8.7299L20.6406 11.3647L15.0314 16.9742L12.3957 14.3391L18.0055 8.7299ZM12.0877 15.5099L13.976 17.3985L11.1652 18.1588L11.9249 15.3477L12.0877 15.5099Z" fill="black"/>
<path d="M18.6762 11.4335L17.9363 10.6938L14.6543 13.9768L15.3942 14.7164L18.6762 11.4335Z" fill="black"/>
<path d="M6.44953 22.8203H20.5234C21.6298 22.8203 22.5289 21.9203 22.5289 20.8142V13.7317H21.4831V20.8145C21.4831 21.344 21.0529 21.7742 20.5234 21.7742H6.97291V7.89601H15.8997V6.84985H6.44953C6.1606 6.84985 5.92676 7.08401 5.92676 7.37293V22.2969C5.92676 22.5859 6.1603 22.8203 6.44953 22.8203Z" fill="black"/>
</svg>
